<?xml version="1.0" encoding="UTF-8" standalone="no"?>
<!-- Created with Inkscape (http://www.inkscape.org/) -->

<svg
   version="1.1"
   id="svg112"
   width="24.000061"
   height="23.999908"
   viewBox="0 0 24.000061 23.999908"
   sodipodi:docname="vector-button-plus-icon.jpg"
   inkscape:export-filename="plus-icon.svg"
   inkscape:export-xdpi="96"
   inkscape:export-ydpi="96"
   xmlns:inkscape="http://www.inkscape.org/namespaces/inkscape"
   xmlns:sodipodi="http://sodipodi.sourceforge.net/DTD/sodipodi-0.dtd"
   xmlns="http://www.w3.org/2000/svg"
   xmlns:svg="http://www.w3.org/2000/svg">
  <defs
     id="defs116" />
  <sodipodi:namedview
     id="namedview114"
     pagecolor="#ffffff"
     bordercolor="#999999"
     borderopacity="1"
     inkscape:showpageshadow="0"
     inkscape:pageopacity="0"
     inkscape:pagecheckerboard="0"
     inkscape:deskcolor="#d1d1d1"
     showgrid="false" />
  <g
     inkscape:groupmode="layer"
     inkscape:label="Image"
     id="g118"
     transform="translate(-334.59207,-436.92953)">
    <path
       style="fill:#000000;stroke-width:0.00669921"
       d="m 346.42281,460.92846 c -0.024,-10e-4 -0.0933,-0.007 -0.154,-0.0127 -0.712,-0.0653 -1.37254,-0.34283 -1.93948,-0.81486 -0.0949,-0.079 -0.29956,-0.28146 -0.38836,-0.38416 -0.44136,-0.51045 -0.7275,-1.12779 -0.82441,-1.77866 -0.0347,-0.23304 -0.0322,-0.0372 -0.0362,-2.86729 l -0.004,-2.62277 -2.61266,-0.004 c -2.84454,-0.004 -2.63892,-0.001 -2.8897,-0.0396 -0.50804,-0.0779 -1.002,-0.27217 -1.42789,-0.56152 -0.32682,-0.22204 -0.62474,-0.50663 -0.85732,-0.81894 -0.5446,-0.73131 -0.78195,-1.62918 -0.6694,-2.53233 0.0839,-0.67347 0.35473,-1.2899 0.8036,-1.82927 0.0892,-0.10725 0.31414,-0.33213 0.42149,-0.42148 0.51055,-0.4249 1.10007,-0.69325 1.73561,-0.79005 0.25955,-0.0395 0.0553,-0.0368 2.89868,-0.0391 l 2.60094,-0.002 v -2.56769 c 0,-1.70433 0.002,-2.59799 0.007,-2.6578 0.0807,-1.04981 0.61408,-1.99201 1.47732,-2.60942 0.48166,-0.34449 1.0394,-0.55761 1.6476,-0.62958 0.12555,-0.0149 0.50993,-0.021 0.64453,-0.0103 0.7432,0.0592 1.41232,0.3316 1.99157,0.81083 0.10777,0.0892 0.35323,0.33463 0.44237,0.44238 0.44986,0.5438 0.72314,1.18005 0.79994,1.8624 0.0225,0.19962 0.0237,0.3482 0.0238,2.85544 l 1e-4,2.50372 2.59758,0.002 c 2.41061,0.002 2.60506,0.003 2.70143,0.0137 0.46612,0.0521 0.82823,0.15613 1.21924,0.35038 0.35297,0.17535 0.62316,0.36743 0.90348,0.64231 0.19329,0.18954 0.33233,0.35677 0.47351,0.5695 0.32524,0.49006 0.51058,1.01057 0.5737,1.61118 0.0139,0.13256 0.0118,0.5587 -0.004,0.69338 -0.0739,0.65067 -0.3043,1.23352 -0.69129,1.74851 -0.45507,0.60558 -1.1095,1.05796 -1.83119,1.26583 -0.19936,0.0574 -0.38646,0.0945 -0.61714,0.12225 -0.0906,0.0109 -0.27328,0.0118 -2.71131,0.0137 l -2.61418,0.002 -0.002,2.59083 c -0.002,1.97299 -0.004,2.6092 -0.0104,2.66787 -0.0253,0.2394 -0.0505,0.38605 -0.0993,0.57863 -0.21098,0.83252 -0.73322,1.56912 -1.45643,2.05423 -0.49733,0.3336 -1.038,0.5245 -1.65097,0.58291 -0.0774,0.007 -0.39779,0.0136 -0.47229,0.009 z"
       id="path280" />
  </g>
</svg>
